<?xml version="1.0" encoding="UTF-8"?><svg id="a" xmlns="http://www.w3.org/2000/svg" xmlns:xlink="http://www.w3.org/1999/xlink" viewBox="0 0 145 32"><defs><linearGradient id="b" x1="0" y1="18" x2="144.99998" y2="18" gradientTransform="translate(0 34) scale(1 -1)" gradientUnits="userSpaceOnUse"><stop offset="0" stop-color="#f59c07"/><stop offset="1" stop-color="#f57507"/></linearGradient><clipPath id="d"><rect width="144.99998" height="32" rx="2.9" ry="2.9" style="fill:none;"/></clipPath><linearGradient id="e" x1="0" y1="18" x2="144.99998" y2="18" gradientTransform="translate(0 34) scale(1 -1)" gradientUnits="userSpaceOnUse"><stop offset="0" stop-color="#f59c07"/><stop offset="1" stop-color="#f57507"/></linearGradient><linearGradient id="f" x1="0" y1="18" x2="145" y2="18" gradientTransform="translate(0 34) scale(1 -1)" gradientUnits="userSpaceOnUse"><stop offset="0" stop-color="#f59c07"/><stop offset="1" stop-color="#f57507"/></linearGradient></defs><g><path id="c" d="M2.9,0H142.09999c1.60001,0,2.89999,1.3,2.89999,2.9V29.1c0,1.6-1.3,2.9-2.89999,2.9H2.9c-1.6,0-2.9-1.3-2.9-2.9V2.9C0,1.3,1.3,0,2.9,0Z" style="fill:url(#b);"/><g style="clip-path:url(#d);"><g><path d="M2.9,0H142.09999c1.60001,0,2.89999,1.3,2.89999,2.9V29.1c0,1.6-1.3,2.9-2.89999,2.9H2.9c-1.6,0-2.9-1.3-2.9-2.9V2.9C0,1.3,1.3,0,2.9,0Z" style="fill:url(#e);"/><rect width="145" height="32" style="fill:url(#f);"/></g></g></g><g><g style="isolation:isolate;"><path d="M39.7002,11.30127h1.58203v2.87695l2.23291-2.87695h1.87988l-2.87207,3.72461,3.15137,4.62061h-1.85645l-2.53564-3.70801v3.70801h-1.58203V11.30127Z" style="fill:#f4f4f4;"/><path d="M45.94727,13.47412h1.56006l1.58008,3.87354,1.74365-3.87354h1.56445l-3.81006,8.43018h-1.57666l1.25098-2.71875-2.3125-5.71143Z" style="fill:#f4f4f4;"/><path d="M54.78564,19.64648h-1.52637v-6.17236h5.33398v6.17236h-1.52637v-4.68018h-2.28125v4.68018Z" style="fill:#f4f4f4;"/><path d="M60.94189,19.64648h-.81055v-6.17236h1.4873v3.62549l3.11426-3.62549h.73242v6.17236h-1.4873v-3.55127l-3.03613,3.55127Z" style="fill:#f4f4f4;"/><path d="M73.93359,17.36719l1.86719-3.89307h1.00586l1.52344,6.17236h-1.49219l-.81348-3.62158-1.81152,3.62158h-.62695l-1.77197-3.62451-.81885,3.62451h-1.48779l1.52344-6.17236h1.00635l1.89648,3.89307Z" style="fill:#f4f4f4;"/><path d="M80.70117,15.69824h2.28125v-2.22412h1.52734v6.17236h-1.52734v-2.55859h-2.28125v2.55859h-1.52539v-6.17236h1.52539v2.22412Z" style="fill:#f4f4f4;"/><path d="M92.14746,17.00781h-4.90332c.07031,.43945,.25977,.78906,.56738,1.04688,.30762,.25977,.7002,.38867,1.17676,.38867,.57031,0,1.06055-.20117,1.4707-.60645l1.28613,.6123c-.32129,.46191-.7041,.80273-1.15137,1.02441s-.97852,.33105-1.59375,.33105c-.95508,0-1.73242-.30469-2.33203-.91602-.59961-.61035-.90039-1.375-.90039-2.29443,0-.94141,.29883-1.72363,.89746-2.3457s1.34863-.93311,2.25098-.93311c.95703,0,1.73633,.31104,2.33691,.93311s.90039,1.44385,.90039,2.46484l-.00586,.29443Zm-1.52637-1.21924c-.10156-.34375-.2998-.62402-.59668-.83936-.29688-.21582-.6416-.32324-1.0332-.32324-.42578,0-.7998,.12109-1.12012,.36279-.20117,.15137-.38867,.41797-.56055,.7998h3.31055Z" style="fill:#f4f4f4;"/><path d="M96.58691,13.47412h1.52637v2.30957l2.10254-2.30957h1.86328l-2.70898,3.00781,2.74316,3.16455h-2.02539l-1.81348-2.17969-.16113,.19434v1.98535h-1.52637v-6.17236Z" style="fill:#f4f4f4;"/><path d="M105.59473,13.31543c.57324,0,1.11328,.14551,1.61816,.43652,.50586,.2915,.90039,.68652,1.18359,1.18604,.2832,.49902,.42383,1.03809,.42383,1.6167,0,.58203-.14258,1.12695-.42773,1.63379s-.67383,.90332-1.16504,1.18848c-.49219,.28516-1.03418,.42773-1.62793,.42773-.87109,0-1.61621-.31445-2.23242-.94336-.61719-.63086-.92578-1.39453-.92578-2.29541,0-.96436,.34766-1.76807,1.04492-2.41113,.61133-.55957,1.31445-.83936,2.1084-.83936Zm.02441,1.45801c-.47363,0-.86914,.16699-1.18359,.50195-.31641,.33447-.47363,.76318-.47363,1.28516,0,.53711,.15527,.97168,.46777,1.30469,.31152,.33203,.70703,.49902,1.18457,.49902s.87598-.16797,1.19238-.50488c.31836-.33594,.47656-.76953,.47656-1.29883,0-.52979-.15625-.95996-.46777-1.29102-.31152-.33057-.70996-.49609-1.19629-.49609Z" style="fill:#f4f4f4;"/><path d="M114.31152,19.11719c-.5332,.4707-1.11426,.70508-1.74512,.70508-.76367,0-1.42773-.30664-1.99023-.92188-.5625-.61426-.84375-1.38281-.84375-2.30615,0-.96436,.27344-1.74805,.82227-2.35156,.54688-.60303,1.20508-.90479,1.97266-.90479,.68555,0,1.28125,.23682,1.78418,.71045v-2.95703h1.51465v2.95703c.50391-.48877,1.09766-.73291,1.78418-.73291,.48828,0,.94238,.13037,1.36426,.39111,.42188,.26123,.76367,.63574,1.0293,1.12354,.26367,.48779,.39648,1.06836,.39648,1.7417,0,.94189-.28418,1.71533-.85254,2.32275-.56934,.60742-1.22754,.91016-1.97656,.91016-.62988,0-1.21191-.22852-1.74512-.6875v2.78711h-1.51465v-2.78711Zm.04395-2.50293c0-.4043-.06641-.73535-.20117-.99414-.13379-.25879-.31348-.46533-.53906-.62012s-.48242-.23242-.76855-.23242c-.49219,0-.87793,.17676-1.15723,.52979s-.41992,.77686-.41992,1.27148c0,.52881,.15039,.96631,.45312,1.31396,.30176,.34766,.67383,.52148,1.11816,.52148,.42871,0,.78809-.15625,1.0791-.46777s.43555-.75195,.43555-1.32227Zm4.51855-.05664c0-.5249-.14746-.95654-.44238-1.29443-.29395-.33789-.67383-.50684-1.14062-.50684-.40234,0-.75391,.16162-1.05273,.48438-.30078,.32275-.45117,.78271-.45117,1.37891,0,.55518,.14453,.98975,.43359,1.30322s.64844,.46973,1.07617,.46973c.44336,0,.81738-.17285,1.12109-.51758,.30469-.3457,.45605-.78516,.45605-1.31738Z" style="fill:#f4f4f4;"/><path d="M127.70312,17.00781h-4.9043c.07129,.43945,.26074,.78906,.56836,1.04688,.30664,.25977,.69922,.38867,1.17676,.38867,.57031,0,1.06055-.20117,1.4707-.60645l1.28613,.6123c-.32031,.46191-.70508,.80273-1.15234,1.02441s-.97852,.33105-1.59375,.33105c-.95312,0-1.73047-.30469-2.33105-.91602-.60059-.61035-.90039-1.375-.90039-2.29443,0-.94141,.2998-1.72363,.89746-2.3457s1.34863-.93311,2.25-.93311c.95898,0,1.73828,.31104,2.33789,.93311s.90039,1.44385,.90039,2.46484l-.00586,.29443Zm-1.52637-1.21924c-.10059-.34375-.2998-.62402-.59668-.83936-.29688-.21582-.64062-.32324-1.0332-.32324-.42578,0-.79883,.12109-1.12012,.36279-.20215,.15137-.3877,.41797-.55957,.7998h3.30957Z" style="fill:#f4f4f4;"/></g><g id="g"><path id="h" d="M31.89999,10.8l-3.39999-3.9c-.2-.2-.39999-.3-.60001-.3h-10c-.39999,0-.8,.3-.8,.7l-1.2,13.7c0,.2,0,.4,.2,.6s.39999,.3,.60001,.3h2l-.3,3.6,3.89999-3.6h4.39999c.2,0,.39999-.1,.5-.2l4.10001-4c.10001-.1,.2-.3,.2-.5l.5-5.8c.10002-.3,.00002-.5-.09999-.6Zm-3.09999,5.2c0,.2-.10001,.4-.2,.5l-2.39999,2.3c-.10001,.1-.39999,.2-.5,.2h-5.89999c-.39999,0-.7-.2-.8-.6v-.3l.7-8c0-.4,.39999-.7,.8-.7h6c.2,0,.39999,.1,.60001,.3l1.89999,2.2c.10001,.2,.2,.4,.2,.6l-.40001,3.5Zm-4.7,1.6h-1.2q-.10001,0-.2-.1s-.10001-.1-.10001-.2l.10001-1.2c0-.1,.10001-.2,.2-.2h1.2q.10001,0,.2,.1t.10001,.2l-.10001,1.2c0,.1-.10001,.2-.2,.2h0Zm.2-2.2h-1.2c-.10001,0-.2-.1-.2-.2l.3-3.7c0-.1,.10001-.2,.2-.2h1.2c.10001,0,.2,.1,.2,.2l-.3,3.7c0,.1-.10001,.2-.2,.2Z" style="fill:#f4f4f4;"/></g></g></svg>