<?xml version="1.0" encoding="utf-8"?>
<!-- Generator: Adobe Illustrator 27.0.1, SVG Export Plug-In . SVG Version: 6.00 Build 0)  -->
<svg version="1.1" id="Слой_1" xmlns="http://www.w3.org/2000/svg" xmlns:xlink="http://www.w3.org/1999/xlink" x="0px" y="0px"
	 viewBox="0 0 145 32" style="enable-background:new 0 0 145 32;" xml:space="preserve">
<style type="text/css">
	.st0{clip-path:url(#SVGID_00000103976462294767134530000004775150819180364461_);}
	.st1{fill:url(#SVGID_00000166643703087162427420000004513415429318184582_);}
	.st2{fill:url(#SVGID_00000169523978816026237080000009823020043589856412_);}
	.st3{fill:#F4F4F4;}
	.st4{font-family:'CenturyGothic-Bold';}
	.st5{font-size:11.6185px;}
</style>
<g>
	<defs>
		<path id="SVGID_1_" d="M2.9,0h139.2c1.6,0,2.9,1.3,2.9,2.9v26.2c0,1.6-1.3,2.9-2.9,2.9H2.9C1.3,32,0,30.7,0,29.1V2.9
			C0,1.3,1.3,0,2.9,0z"/>
	</defs>
	
		<linearGradient id="SVGID_00000164481848273180417760000000963916456876484739_" gradientUnits="userSpaceOnUse" x1="0" y1="16" x2="145" y2="16">
		<stop  offset="0" style="stop-color:#F59C07"/>
		<stop  offset="1" style="stop-color:#F57507"/>
	</linearGradient>
	<use xlink:href="#SVGID_1_"  style="overflow:visible;fill:url(#SVGID_00000164481848273180417760000000963916456876484739_);"/>
	<clipPath id="SVGID_00000112590429351320533040000007190799708056710786_">
		<use xlink:href="#SVGID_1_"  style="overflow:visible;"/>
	</clipPath>
	<g style="clip-path:url(#SVGID_00000112590429351320533040000007190799708056710786_);">
		
			<linearGradient id="SVGID_00000132772669558798752810000006715943427140219273_" gradientUnits="userSpaceOnUse" x1="0" y1="16" x2="145" y2="16">
			<stop  offset="0" style="stop-color:#F59C07"/>
			<stop  offset="1" style="stop-color:#F57507"/>
		</linearGradient>
		<path style="fill:url(#SVGID_00000132772669558798752810000006715943427140219273_);" d="M2.9,0h139.2c1.6,0,2.9,1.3,2.9,2.9v26.2
			c0,1.6-1.3,2.9-2.9,2.9H2.9C1.3,32,0,30.7,0,29.1V2.9C0,1.3,1.3,0,2.9,0z"/>
		
			<linearGradient id="SVGID_00000139258592752988519950000011653350412309181874_" gradientUnits="userSpaceOnUse" x1="0" y1="16" x2="145" y2="16">
			<stop  offset="0" style="stop-color:#F59C07"/>
			<stop  offset="1" style="stop-color:#F57507"/>
		</linearGradient>
		<rect style="fill:url(#SVGID_00000139258592752988519950000011653350412309181874_);" width="145" height="32"/>
	</g>
</g>
<g>
	<text transform="matrix(0.9856 0 0 1 38.7497 19.6465)" class="st3 st4 st5">Купи мне кофе</text>
	<g id="Alert" transform="translate(166.000000, 0.000000)">
		<g>
			<path id="D_00000181794578758615521190000010035595434886177931_" class="st3" d="M-134.1,10.8l-3.4-3.9
				c-0.2-0.2-0.4-0.3-0.6-0.3h-10c-0.4,0-0.8,0.3-0.8,0.7l-1.2,13.7c0,0.2,0,0.4,0.2,0.6s0.4,0.3,0.6,0.3h2l-0.3,3.6l3.9-3.6h4.4
				c0.2,0,0.4-0.1,0.5-0.2l4.1-4c0.1-0.1,0.2-0.3,0.2-0.5l0.5-5.8C-133.9,11.1-134,10.9-134.1,10.8z M-137.2,16
				c0,0.2-0.1,0.4-0.2,0.5l-2.4,2.3c-0.1,0.1-0.4,0.2-0.5,0.2h-5.9c-0.4,0-0.7-0.2-0.8-0.6c0-0.1,0-0.2,0-0.3l0.7-8
				c0-0.4,0.4-0.7,0.8-0.7h6c0.2,0,0.4,0.1,0.6,0.3l1.9,2.2c0.1,0.2,0.2,0.4,0.2,0.6L-137.2,16z M-141.9,17.6h-1.2
				c-0.1,0-0.1,0-0.2-0.1c0,0-0.1-0.1-0.1-0.2l0.1-1.2c0-0.1,0.1-0.2,0.2-0.2h1.2c0.1,0,0.1,0,0.2,0.1s0.1,0.1,0.1,0.2l-0.1,1.2
				C-141.7,17.5-141.8,17.6-141.9,17.6L-141.9,17.6z M-141.7,15.4h-1.2c-0.1,0-0.2-0.1-0.2-0.2l0.3-3.7c0-0.1,0.1-0.2,0.2-0.2h1.2
				c0.1,0,0.2,0.1,0.2,0.2l-0.3,3.7C-141.5,15.3-141.6,15.4-141.7,15.4z"/>
		</g>
	</g>
</g>
</svg>
